<svg width="13" height="11" viewBox="0 0 14 12" fill="none" xmlns="http://www.w3.org/2000/svg">
<path d="M3.85156 0.0406494C2.95781 0.0406494 2.16156 0.41697 1.56031 1.00599C0.975312 1.59502 0.601562 2.39675 0.601562 3.31301C0.601562 4.21291 0.975312 5.01463 1.56031 5.62002L7.10156 11.1994L12.6428 5.62002C13.2278 5.031 13.6016 4.22927 13.6016 3.31301C13.6016 2.41311 13.2278 1.61138 12.6428 1.00599C12.0578 0.41697 11.2616 0.0406494 10.3516 0.0406494C9.45781 0.0406494 8.66156 0.41697 8.06031 1.00599C7.47531 1.59502 7.10156 2.39675 7.10156 3.31301C7.10156 2.41311 6.72781 1.61138 6.14281 1.00599C5.55781 0.41697 4.76156 0.0406494 3.85156 0.0406494V0.0406494Z" fill="black"/>
</svg>
