<svg width="13" height="12" viewBox="0 0 13 14" fill="none" xmlns="http://www.w3.org/2000/svg">
<path d="M9.55451 0.170776C9.26128 0.187067 8.96805 0.219649 8.6911 0.317393C8.25125 0.4803 7.82769 0.724661 7.4693 1.08306C7.36618 1.14843 7.27907 1.23614 7.21442 1.33972C7.14978 1.44329 7.10924 1.56007 7.09581 1.68143C7.08238 1.80278 7.09641 1.9256 7.13685 2.0408C7.17729 2.156 7.24311 2.26064 7.32944 2.34698C7.41577 2.43331 7.52041 2.49913 7.63561 2.53957C7.75082 2.58001 7.87364 2.59403 7.99499 2.58061C8.11634 2.56718 8.23313 2.52664 8.3367 2.46199C8.44027 2.39734 8.52799 2.31024 8.59336 2.20712C8.77256 2.02792 8.98434 1.93017 9.21241 1.84872C9.78258 1.65323 10.4831 1.73469 10.9392 2.20712C11.5746 2.84246 11.5746 3.90135 10.9392 4.55298L8.49561 6.99659C7.77882 7.71338 7.19236 7.77854 6.7688 7.76225C6.34524 7.74596 6.10088 7.55047 6.10088 7.55047C6.00675 7.49699 5.903 7.46257 5.79557 7.44918C5.68814 7.43579 5.57912 7.44369 5.47474 7.47244C5.37036 7.50118 5.27267 7.5502 5.18723 7.6167C5.1018 7.68319 5.0303 7.76587 4.97682 7.86C4.92333 7.95413 4.88891 8.05787 4.87552 8.1653C4.86213 8.27274 4.87004 8.38175 4.89878 8.48613C4.92752 8.59051 4.97654 8.68821 5.04304 8.77364C5.10954 8.85908 5.19221 8.93058 5.28634 8.98406C5.28634 8.98406 5.84023 9.34245 6.65476 9.39133C7.4693 9.4402 8.60965 9.13067 9.60338 8.12065L12.047 5.67704C13.3177 4.40637 13.3177 2.35373 12.047 1.09935C11.5909 0.643207 11.0533 0.366265 10.4668 0.235939C10.1736 0.170776 9.84775 0.170776 9.55451 0.187067V0.170776ZM6.29637 3.93393C5.48183 3.90135 4.35777 4.17829 3.39662 5.15574L0.953008 7.59935C-0.317669 8.87002 -0.317669 10.9227 0.953008 12.177C1.86529 13.0893 3.16855 13.35 4.3089 12.9427C4.74875 12.7798 5.17231 12.5354 5.5307 12.177C5.63382 12.1117 5.72093 12.024 5.78558 11.9204C5.85023 11.8168 5.89076 11.7 5.90419 11.5787C5.91762 11.4573 5.90359 11.3345 5.86315 11.2193C5.82271 11.1041 5.75689 10.9995 5.67056 10.9131C5.58423 10.8268 5.47959 10.761 5.36439 10.7205C5.24918 10.6801 5.12636 10.6661 5.00501 10.6795C4.88366 10.6929 4.76687 10.7335 4.6633 10.7981C4.55973 10.8628 4.47201 10.9499 4.40664 11.053C4.22744 11.2322 4.01566 11.3299 3.78759 11.4114C3.21742 11.6069 2.51692 11.5254 2.06078 11.053C1.42544 10.4176 1.42544 9.35875 2.06078 8.70712L4.50439 6.26351C5.15602 5.61188 5.72619 5.53042 6.18233 5.54672C6.63847 5.56301 6.948 5.69333 6.948 5.69333C7.04344 5.76492 7.15345 5.81466 7.27024 5.83904C7.38702 5.86343 7.50774 5.86186 7.62386 5.83445C7.73998 5.80704 7.84865 5.75445 7.94221 5.68041C8.03576 5.60637 8.11191 5.51269 8.16526 5.40598C8.21862 5.29926 8.24788 5.18213 8.25098 5.06287C8.25408 4.9436 8.23094 4.82511 8.1832 4.71577C8.13546 4.60643 8.06428 4.50891 7.9747 4.43011C7.88512 4.35131 7.77932 4.29315 7.66479 4.25975C7.66479 4.25975 7.1109 3.93393 6.29637 3.90135V3.93393Z" fill="#00ACEE"/>
</svg>
