{
  "accessors": [
    {
      "bufferView": 2,
      "componentType": 5126,
      "count": 917,
      "max": [
        154.06875610351563,
        7.000005722045898,
        129.32286071777344
      ],
      "min": [
        -155.3306121826172,
        -7.000005722045898,
        -126.53911590576172
      ],
      "type": "VEC3"
    },
    {
      "bufferView": 2,
      "byteOffset": 11004,
      "componentType": 5126,
      "count": 917,
      "max": [
        0.9999445676803589,
        1.0,
        0.9999432563781738
      ],
      "min": [
        -0.999726414680481,
        -1.0,
        -0.9999980926513672
      ],
      "type": "VEC3"
    },
    {
      "bufferView": 1,
      "componentType": 5126,
      "count": 917,
      "max": [
        1.0,
        1.0
      ],
      "min": [
        0.0,
        0.0
      ],
      "type": "VEC2"
    },
    {
      "bufferView": 0,
      "componentType": 5125,
      "count": 1860,
      "type": "SCALAR"
    }
  ],
  "asset": {
    "extras": {
      "author": "III_OrilaS_III (https://sketchfab.com/III_OrilaS_III)",
      "license": "CC-BY-4.0 (http://creativecommons.org/licenses/by/4.0/)",
      "source": "https://sketchfab.com/3d-models/twitter-logo-60aedf8d974d481995e196225fb0bd2e",
      "title": "Twitter Logo"
    },
    "generator": "Sketchfab-12.64.0",
    "version": "2.0"
  },
  "bufferViews": [
    {
      "buffer": 0,
      "byteLength": 7440,
      "name": "floatBufferViews",
      "target": 34963
    },
    {
      "buffer": 0,
      "byteLength": 7336,
      "byteOffset": 7440,
      "byteStride": 8,
      "name": "floatBufferViews",
      "target": 34962
    },
    {
      "buffer": 0,
      "byteLength": 22008,
      "byteOffset": 14776,
      "byteStride": 12,
      "name": "floatBufferViews",
      "target": 34962
    }
  ],
  "buffers": [
    {
      "byteLength": 36784,
      "uri": "scene.bin"
    }
  ],
  "materials": [
    {
      "doubleSided": true,
      "name": "twitter_logo",
      "pbrMetallicRoughness": {
        "baseColorFactor": [
          0.168627,
          0.635294,
          0.941176,
          1.0
        ],
        "metallicFactor": 0.0,
        "roughnessFactor": 0.6
      }
    }
  ],
  "meshes": [
    {
      "name": "twitter_logo_twitter_logo_0",
      "primitives": [
        {
          "attributes": {
            "NORMAL": 1,
            "POSITION": 0,
            "TEXCOORD_0": 2
          },
          "indices": 3,
          "material": 0,
          "mode": 4
        }
      ]
    }
  ],
  "nodes": [
    {
      "children": [
        1
      ],
      "matrix": [
        1.0,
        0.0,
        0.0,
        0.0,
        0.0,
        2.220446049250313e-16,
        -1.0,
        0.0,
        0.0,
        1.0,
        2.220446049250313e-16,
        0.0,
        0.0,
        0.0,
        0.0,
        1.0
      ],
      "name": "Sketchfab_model"
    },
    {
      "children": [
        2
      ],
      "matrix": [
        1.0,
        0.0,
        0.0,
        0.0,
        0.0,
        0.0,
        1.0,
        0.0,
        0.0,
        -1.0,
        0.0,
        0.0,
        0.0,
        0.0,
        0.0,
        1.0
      ],
      "name": "84012a783ac14b0093a189f1d945e890.fbx"
    },
    {
      "children": [
        3,
        5
      ],
      "name": "RootNode"
    },
    {
      "children": [
        4
      ],
      "matrix": [
        -0.07221635594208098,
        -0.13715402553943523,
        -0.9879137468487694,
        0.0,
        -0.009999259601634794,
        0.9905497328646997,
        -0.13678904023748087,
        0.0,
        0.9973388655526595,
        -9.71445146547012e-16,
        -0.07290533079366845,
        0.0,
        32.7493896484375,
        127.0291748046875,
        554.5413818359375,
        1.0
      ],
      "name": "CINEMA_4D_Editor"
    },
    {
      "name": "Object_4"
    },
    {
      "children": [
        6
      ],
      "matrix": [
        1.0,
        0.0,
        0.0,
        0.0,
        0.0,
        2.220446049250313e-16,
        1.0,
        0.0,
        0.0,
        -1.0,
        2.220446049250313e-16,
        0.0,
        0.0,
        0.0,
        3.944304526105059e-31,
        1.0
      ],
      "name": "twitter_logo"
    },
    {
      "mesh": 0,
      "name": "twitter_logo_twitter_logo_0"
    }
  ],
  "scene": 0,
  "scenes": [
    {
      "name": "Sketchfab_Scene",
      "nodes": [
        0
      ]
    }
  ]
}
